<?xml version="1.0" encoding="UTF-8"?>
<svg xmlns="http://www.w3.org/2000/svg" xmlns:xlink="http://www.w3.org/1999/xlink" width="128px" height="128px" viewBox="0 0 128 128" version="1.1">
<g id="surface1">
<path style=" stroke:none;fill-rule:nonzero;fill:rgb(0%,0%,0%);fill-opacity:1;" d="M 84 8 C 72.605469 8 61.875 13.394531 55.082031 22.550781 C 48.292969 31.707031 46.238281 43.542969 49.550781 54.449219 L 8 96 L 8 120 L 32 120 L 73.550781 78.449219 C 87.074219 82.550781 101.761719 78.363281 111.074219 67.738281 C 120.394531 57.113281 122.636719 42.011719 116.800781 29.136719 C 110.96875 16.261719 98.136719 8 84 8 Z M 84 72 C 81.25 72 78.511719 71.59375 75.875 70.792969 L 71.28125 69.394531 L 67.894531 72.792969 L 55.167969 85.511719 L 49.65625 80 L 44 85.65625 L 49.511719 91.167969 L 43.167969 97.511719 L 37.65625 92 L 32 97.65625 L 37.511719 103.167969 L 28.6875 112 L 16 112 L 16 99.3125 L 58.59375 56.71875 L 57.207031 52.125 C 53.699219 40.574219 58 28.0625 67.886719 21.105469 C 77.761719 14.15625 90.980469 14.3125 100.6875 21.511719 C 110.386719 28.707031 114.375 41.3125 110.59375 52.78125 C 106.800781 64.261719 96.082031 72 84 72 Z M 84 72 "/>
<path style=" stroke:none;fill-rule:nonzero;fill:rgb(0%,0%,0%);fill-opacity:1;" d="M 96 40 C 96 44.417969 92.417969 48 88 48 C 83.582031 48 80 44.417969 80 40 C 80 35.582031 83.582031 32 88 32 C 92.417969 32 96 35.582031 96 40 Z M 96 40 "/>
</g>
</svg>
