<?xml version="1.0" encoding="UTF-8"?>
<svg xmlns="http://www.w3.org/2000/svg" xmlns:xlink="http://www.w3.org/1999/xlink" width="48px" height="48px" viewBox="0 0 48 48" version="1.1">
<g id="surface1">
<path style=" stroke:none;fill-rule:nonzero;fill:rgb(0%,0%,0%);fill-opacity:1;" d="M 31.5 3 C 27.226562 3 23.203125 5.023438 20.65625 8.457031 C 18.109375 11.890625 17.339844 16.328125 18.582031 20.417969 L 3 36 L 3 45 L 12 45 L 27.582031 29.417969 C 32.652344 30.957031 38.160156 29.386719 41.652344 25.402344 C 45.148438 21.417969 45.988281 15.753906 43.800781 10.925781 C 41.613281 6.097656 36.800781 3 31.5 3 Z M 31.5 27 C 30.46875 27 29.441406 26.847656 28.453125 26.546875 L 26.730469 26.023438 L 25.460938 27.296875 L 20.6875 32.066406 L 18.621094 30 L 16.5 32.121094 L 18.566406 34.1875 L 16.1875 36.566406 L 14.121094 34.5 L 12 36.621094 L 14.066406 38.6875 L 10.757812 42 L 6 42 L 6 37.242188 L 21.972656 21.269531 L 21.453125 19.546875 C 20.136719 15.214844 21.75 10.523438 25.457031 7.914062 C 29.160156 5.308594 34.117188 5.367188 37.757812 8.066406 C 41.394531 10.765625 42.890625 15.492188 41.472656 19.792969 C 40.050781 24.097656 36.03125 27 31.5 27 Z M 31.5 27 "/>
<path style=" stroke:none;fill-rule:nonzero;fill:rgb(0%,0%,0%);fill-opacity:1;" d="M 36 15 C 36 16.65625 34.65625 18 33 18 C 31.34375 18 30 16.65625 30 15 C 30 13.34375 31.34375 12 33 12 C 34.65625 12 36 13.34375 36 15 Z M 36 15 "/>
</g>
</svg>
