<?xml version="1.0" encoding="UTF-8"?>
<svg xmlns="http://www.w3.org/2000/svg" xmlns:xlink="http://www.w3.org/1999/xlink" width="16px" height="16px" viewBox="0 0 16 16" version="1.1">
<g id="surface1">
<path style=" stroke:none;fill-rule:nonzero;fill:rgb(0%,0%,0%);fill-opacity:1;" d="M 10.5 1 C 9.074219 1 7.734375 1.675781 6.886719 2.820312 C 6.035156 3.964844 5.78125 5.441406 6.195312 6.804688 L 1 12 L 1 15 L 4 15 L 9.195312 9.804688 C 10.882812 10.320312 12.71875 9.796875 13.882812 8.46875 C 15.050781 7.140625 15.328125 5.25 14.601562 3.640625 C 13.871094 2.03125 12.265625 1 10.5 1 Z M 10.5 9 C 10.15625 9 9.8125 8.949219 9.484375 8.847656 L 8.910156 8.675781 L 8.488281 9.097656 L 6.894531 10.6875 L 6.207031 10 L 5.5 10.707031 L 6.1875 11.394531 L 5.394531 12.1875 L 4.707031 11.5 L 4 12.207031 L 4.6875 12.894531 L 3.585938 14 L 2 14 L 2 12.414062 L 7.324219 7.089844 L 7.152344 6.515625 C 6.710938 5.070312 7.25 3.507812 8.484375 2.636719 C 9.71875 1.769531 11.371094 1.789062 12.585938 2.6875 C 13.796875 3.589844 14.296875 5.164062 13.824219 6.597656 C 13.351562 8.03125 12.011719 9 10.5 9 Z M 10.5 9 "/>
<path style=" stroke:none;fill-rule:nonzero;fill:rgb(0%,0%,0%);fill-opacity:1;" d="M 12 5 C 12 5.550781 11.550781 6 11 6 C 10.449219 6 10 5.550781 10 5 C 10 4.449219 10.449219 4 11 4 C 11.550781 4 12 4.449219 12 5 Z M 12 5 "/>
</g>
</svg>
